<?xml version="1.0" standalone="no"?>
<!DOCTYPE svg PUBLIC "-//W3C//DTD SVG 20010904//EN"
 "http://www.w3.org/TR/2001/REC-SVG-20010904/DTD/svg10.dtd">
<svg version="1.0" xmlns="http://www.w3.org/2000/svg"
 width="50.000000pt" height="50.000000pt" viewBox="0 0 50.000000 50.000000"
 preserveAspectRatio="xMidYMid meet">

<g transform="translate(0.000000,50.000000) scale(0.100000,-0.100000)"
fill="#000000" stroke="none">
<path d="M372 458 c-72 -91 -109 -108 -239 -108 -96 0 -113 -11 -113 -73 0
-28 7 -48 22 -64 12 -13 30 -58 42 -106 l21 -82 43 -3 c51 -4 62 13 38 62 -9
19 -16 53 -16 76 l0 43 46 -7 c62 -8 99 -32 140 -89 19 -27 40 -47 47 -44 14
4 24 46 26 109 1 37 5 48 20 53 37 11 38 68 2 80 -14 4 -19 20 -24 73 -9 104
-21 122 -55 80z m32 -39 c8 -40 6 -277 -2 -307 -7 -22 -9 -21 -45 23 -42 50
-74 70 -130 80 l-37 7 0 53 0 53 37 7 c58 11 111 42 136 80 12 19 25 35 28 35
4 0 9 -14 13 -31z m-234 -144 l0 -56 -62 3 -63 3 -3 39 c-5 61 0 66 68 66 l60
0 0 -55z m285 -10 c0 -10 -6 -20 -12 -22 -8 -3 -13 5 -13 22 0 17 5 25 13 23
6 -3 12 -13 12 -23z m-305 -105 c0 -22 7 -57 15 -77 19 -45 20 -43 -15 -43
-24 0 -31 5 -36 28 -3 15 -12 51 -19 80 l-13 52 34 0 c33 0 34 -1 34 -40z"/>
</g>
</svg>
