<?xml version="1.0" standalone="no"?>
<!DOCTYPE svg PUBLIC "-//W3C//DTD SVG 20010904//EN"
 "http://www.w3.org/TR/2001/REC-SVG-20010904/DTD/svg10.dtd">
<svg version="1.0" xmlns="http://www.w3.org/2000/svg"
 width="512.000000pt" height="512.000000pt" viewBox="0 0 512.000000 512.000000"
 preserveAspectRatio="xMidYMid meet">

<g transform="translate(0.000000,512.000000) scale(0.100000,-0.100000)"
fill="#000000" stroke="none">
<path d="M2459 5092 c-66 -34 -105 -88 -119 -161 -6 -30 -10 -224 -10 -442 l0
-388 -55 -25 c-66 -30 -125 -70 -185 -127 l-44 -42 -712 6 c-435 3 -738 2
-780 -4 -38 -5 -92 -21 -120 -34 -95 -46 -130 -97 -286 -410 l-143 -287 0 -91
c0 -78 4 -101 27 -149 15 -32 47 -79 72 -106 l46 -49 0 -1096 0 -1096 -28 -15
c-43 -22 -99 -90 -111 -133 -15 -52 -14 -236 1 -287 16 -54 90 -128 144 -144
60 -18 4748 -18 4808 0 54 16 128 90 144 144 15 51 16 235 1 287 -12 43 -68
111 -111 133 l-28 15 0 312 c0 339 -1 348 -55 361 -25 6 -25 8 -25 106 0 92 2
100 19 100 11 0 29 12 40 26 21 26 21 34 21 657 l0 630 46 49 c25 27 57 74 72
106 23 49 27 71 27 149 l0 91 -143 287 c-155 313 -191 364 -286 410 -28 13
-82 29 -121 35 -41 6 -364 10 -787 10 l-717 0 -38 36 c-46 44 -133 102 -191
128 l-42 19 0 134 0 133 45 0 c26 0 75 -12 118 -29 102 -41 214 -57 304 -43
142 21 203 69 203 163 0 39 -8 59 -51 125 l-51 78 31 63 c37 75 40 133 11 181
-34 55 -68 69 -188 74 -94 5 -118 10 -202 44 -88 35 -103 39 -200 40 -92 2
-111 5 -154 28 -67 35 -127 35 -197 -2z m145 -143 l26 -20 0 -395 0 -394 -70
0 -70 0 0 394 0 395 26 20 c15 12 34 21 44 21 10 0 29 -9 44 -21z m351 -64
c75 -34 171 -55 252 -55 l62 0 -31 -66 c-42 -90 -37 -136 25 -229 46 -69 47
-70 24 -79 -12 -5 -60 -9 -107 -9 -73 1 -97 5 -165 33 -55 22 -103 34 -152 38
l-73 5 0 200 0 200 53 -6 c28 -3 79 -17 112 -32z m-271 -910 c82 -22 161 -63
218 -114 56 -50 746 -898 771 -948 36 -68 5 -158 -67 -192 -51 -25 -73 -26
-125 -5 -33 13 -95 85 -405 468 -265 328 -376 458 -405 474 -76 43 -171 38
-239 -12 -18 -13 -194 -223 -392 -467 -317 -393 -364 -446 -403 -463 -57 -24
-105 -16 -152 25 -45 40 -62 95 -47 148 7 21 46 81 87 132 59 74 75 101 75
127 0 62 -72 95 -118 55 -36 -33 -149 -177 -170 -220 -12 -22 -24 -60 -28 -82
l-7 -42 -481 3 c-447 3 -483 4 -516 22 -84 44 -124 109 -124 203 -1 59 4 71
125 315 69 139 138 267 153 285 14 17 46 41 69 52 43 21 55 21 730 21 378 0
687 -3 687 -6 0 -3 -54 -71 -119 -152 -66 -81 -122 -159 -126 -174 -6 -22 -1
-33 23 -58 32 -32 51 -36 82 -20 11 6 104 115 208 243 210 258 244 293 332
337 118 59 247 75 364 45z m1933 -236 c23 -11 55 -35 69 -52 47 -56 275 -527
281 -580 10 -86 -40 -177 -121 -220 -40 -22 -48 -22 -522 -25 l-481 -3 -7 42
c-4 22 -16 60 -28 82 -11 23 -153 205 -314 404 -162 199 -294 364 -294 367 0
3 309 6 687 6 675 0 687 0 730 -21z m-2009 -226 c11 -10 171 -205 356 -434
185 -229 353 -433 373 -453 21 -20 57 -43 80 -52 l43 -17 0 -973 0 -974 -145
0 -145 0 0 189 c0 103 -5 212 -10 241 -24 129 -100 228 -218 283 l-67 32 -315
0 -315 0 -67 -32 c-37 -17 -87 -52 -112 -77 l-46 -45 -9 37 c-127 471 -154
1073 -69 1524 l13 67 265 328 c146 180 275 338 287 350 27 28 73 30 101 6z
m-1638 -1125 c72 -38 80 -64 80 -260 l0 -168 -145 0 -145 0 0 170 c0 187 6
211 57 248 52 37 94 40 153 10z m3304 8 c18 -8 46 -31 62 -52 l29 -37 3 -174
4 -173 -151 0 -151 0 0 173 c0 199 8 223 83 257 50 23 77 25 121 6z m-3278
-927 c50 -46 54 -66 54 -244 l0 -165 -145 0 -145 0 0 173 c0 189 5 207 66 249
42 28 134 21 170 -13z m3301 11 c59 -36 67 -66 71 -252 l4 -168 -152 0 -151 0
3 181 3 180 42 40 c38 35 47 39 95 39 35 0 64 -7 85 -20z m-1817 -805 l0 -525
-185 0 -186 0 3 448 3 449 30 48 c22 36 45 57 84 77 48 25 63 28 152 28 l99 0
0 -525z m411 497 c39 -20 62 -41 84 -77 l30 -48 3 -449 3 -448 -186 0 -185 0
0 525 0 525 99 0 c89 0 104 -3 152 -28z m-1871 -661 c0 -11 12 -29 26 -40 26
-21 37 -21 470 -21 l444 0 0 -150 0 -150 -885 2 c-834 3 -885 4 -902 21 -15
15 -18 35 -18 128 0 159 -23 149 332 149 l284 0 24 25 c14 13 25 31 25 40 0
12 16 15 100 15 92 0 100 -2 100 -19z m3925 -86 c23 -22 25 -31 25 -125 0 -94
-2 -103 -25 -125 l-24 -25 -881 0 -880 0 0 150 0 150 880 0 881 0 24 -25z"/>
<path d="M2412 2920 c-347 -91 -540 -452 -422 -787 83 -238 317 -403 570 -403
238 0 452 138 550 355 40 87 54 158 53 260 -4 387 -378 673 -751 575z m298
-161 c249 -86 370 -375 256 -615 -64 -136 -186 -228 -336 -255 -251 -45 -500
152 -517 409 -23 328 287 567 597 461z"/>
<path d="M2504 2609 c-15 -17 -19 -40 -22 -130 -7 -204 3 -219 149 -219 55 0
108 4 118 10 29 15 45 64 30 92 -19 36 -40 47 -91 48 l-46 0 -4 89 c-2 70 -7
93 -22 110 -26 28 -86 29 -112 0z"/>
</g>
</svg>
