<?xml version="1.0" standalone="no"?>
<!DOCTYPE svg PUBLIC "-//W3C//DTD SVG 20010904//EN"
 "http://www.w3.org/TR/2001/REC-SVG-20010904/DTD/svg10.dtd">
<svg version="1.0" xmlns="http://www.w3.org/2000/svg"
 width="50.000000pt" height="50.000000pt" viewBox="0 0 50.000000 50.000000"
 preserveAspectRatio="xMidYMid meet">

<g transform="translate(0.000000,50.000000) scale(0.100000,-0.100000)"
fill="#000000" stroke="none">
<path d="M127 482 c-22 -24 -21 -50 1 -75 17 -19 16 -19 -35 -12 l-52 7 -21
-73 c-21 -70 -21 -73 -4 -86 10 -7 26 -13 35 -13 10 0 21 -4 24 -10 10 -16
-15 -92 -47 -137 -31 -47 -34 -76 -5 -81 19 -4 71 48 90 91 6 15 15 26 19 25
4 -2 24 -28 45 -58 40 -57 67 -69 86 -39 8 13 -1 36 -44 105 -30 49 -53 97
-51 107 3 16 6 16 42 -4 40 -23 70 -20 70 6 0 9 -13 24 -30 33 -16 9 -37 34
-47 56 -9 21 -23 45 -31 52 -11 12 -11 14 1 14 20 0 47 33 47 57 0 46 -62 69
-93 35z m67 -24 c8 -14 7 -21 -6 -34 -30 -30 -75 9 -48 42 16 18 39 15 54 -8z
m-99 -88 c4 -6 1 -35 -6 -65 -10 -47 -16 -55 -35 -55 -33 0 -34 9 -17 73 12
42 21 57 34 57 10 0 21 -5 24 -10z m89 -48 c14 -27 37 -57 51 -66 15 -10 25
-20 22 -23 -8 -8 -64 25 -70 42 -11 26 -24 17 -34 -24 -10 -37 -8 -43 43 -126
56 -91 62 -105 42 -105 -12 0 -111 144 -135 195 -7 13 -5 42 5 88 19 85 40 90
76 19z m-74 -176 c0 -22 -52 -110 -72 -122 -23 -14 -18 9 10 53 17 26 34 60
37 75 8 32 25 28 25 -6z"/>
<path d="M366 364 c-20 -20 -20 -48 -1 -68 14 -13 12 -14 -18 -9 -30 4 -35 2
-45 -23 -28 -70 -27 -84 6 -96 27 -10 30 -16 26 -38 -4 -14 -17 -42 -31 -63
-44 -70 -2 -95 45 -27 15 21 30 39 33 40 4 0 18 -18 33 -41 17 -25 33 -39 44
-37 28 5 25 33 -12 94 -20 33 -36 62 -36 67 0 4 14 0 31 -8 56 -30 84 6 29 37
-16 9 -36 32 -43 50 -13 30 -12 35 4 51 34 32 14 87 -31 87 -10 0 -26 -7 -34
-16z m59 -34 c0 -18 -6 -26 -23 -28 -13 -2 -25 3 -28 12 -10 26 4 48 28 44 17
-2 23 -10 23 -28z m-75 -74 c0 -35 -14 -76 -26 -76 -21 0 -24 14 -12 53 11 35
38 52 38 23z m68 -38 c19 -35 19 -39 3 -24 -17 15 -19 15 -25 1 -11 -30 -6
-46 31 -106 52 -85 33 -85 -21 -1 -47 72 -51 86 -40 141 9 42 25 39 52 -11z
m-66 -141 c-9 -15 -25 -36 -35 -45 -13 -11 -10 -1 10 39 15 30 31 50 35 45 4
-6 -1 -23 -10 -39z"/>
</g>
</svg>
